<svg width="266" height="119" xmlns="http://www.w3.org/2000/svg" xmlns:xlink="http://www.w3.org/1999/xlink" xml:space="preserve" overflow="hidden"><g transform="translate(-2036 -1120)"><path d="M2170.97 1136 2175.08 1136C2176.45 1136 2177.61 1136.51 2178.57 1137.52 2179.52 1138.53 2180 1139.75 2180 1141.17L2180 1144.73C2180 1146.15 2179.53 1147.39 2178.58 1148.43 2177.63 1149.48 2176.46 1150 2175.08 1150L2170.87 1150C2169.47 1150 2168.3 1149.47 2167.36 1148.41 2166.42 1147.34 2165.97 1146.08 2166 1144.63L2166.09 1141.14C2166.09 1139.72 2166.56 1138.51 2167.51 1137.51 2168.46 1136.5 2169.61 1136 2170.97 1136Z" fill="#AA142D" fill-rule="evenodd"/><path d="M2077.94 1140C2079.31 1140 2080.5 1140.48 2081.5 1141.45 2082.5 1142.42 2083 1143.59 2083 1144.95L2083 1200.05C2083 1201.41 2082.51 1202.58 2081.53 1203.55 2080.54 1204.52 2079.38 1205 2078.03 1205 2076.63 1205 2075.46 1204.52 2074.52 1203.55 2073.58 1202.58 2073.11 1201.41 2073.11 1200.03L2073.11 1199.24C2070.17 1203.08 2066.88 1205 2063.24 1205L2056.51 1205C2053.56 1205 2050.65 1203.75 2047.78 1201.26L2044.37 1198.36C2043.57 1197.59 2042.81 1196.29 2042.08 1194.46 2041.36 1192.63 2041 1190.9 2041 1189.28L2041 1173.05C2041 1171.1 2041.4 1169.21 2042.21 1167.4 2043.01 1165.59 2043.98 1164.21 2045.1 1163.26L2048.35 1160.46C2050.85 1158.27 2053.79 1157.18 2057.17 1157.18L2062.87 1157.18C2066.22 1157.18 2069.26 1158.37 2071.99 1160.76L2073.11 1162.84 2073.11 1144.96C2073.11 1143.59 2073.58 1142.42 2074.53 1141.45 2075.47 1140.48 2076.61 1140 2077.94 1140ZM2057.08 1167.2C2056.19 1167.2 2055.34 1167.56 2054.55 1168.27L2051.98 1170.53C2051.38 1171.07 2051.08 1171.82 2051.08 1172.77L2051.08 1189.65C2051.08 1190.47 2051.48 1191.23 2052.27 1191.91L2054.82 1194.1C2055.48 1194.69 2056.14 1194.98 2056.8 1194.98L2063.25 1194.98C2063.85 1194.98 2064.54 1194.89 2065.3 1194.71L2071.68 1188.69C2072.64 1187.84 2073.11 1186.89 2073.11 1185.84L2073.11 1177.24C2073.11 1175.63 2072.7 1174.49 2071.88 1173.8L2065.38 1168.19C2064.67 1167.53 2063.74 1167.2 2062.59 1167.2L2057.08 1167.2Z" fill="#AA142D" fill-rule="evenodd"/><path d="M2212.93 1140 2225.03 1140C2226.38 1140 2227.55 1140.49 2228.53 1141.48 2229.52 1142.47 2230.01 1143.63 2230.01 1144.95L2230.01 1194.98 2237.02 1194.98C2238.38 1194.98 2239.55 1195.48 2240.53 1196.47 2241.51 1197.45 2242 1198.61 2242 1199.94 2242 1201.31 2241.52 1202.49 2240.56 1203.49 2239.61 1204.5 2238.42 1205 2237.02 1205L2213.03 1205C2211.64 1205 2210.47 1204.5 2209.52 1203.51 2208.57 1202.52 2208.1 1201.33 2208.1 1199.94 2208.1 1198.61 2208.58 1197.45 2209.54 1196.46 2210.49 1195.47 2211.66 1194.98 2213.02 1194.98L2219.99 1194.98 2219.99 1149.92 2212.93 1149.92C2211.55 1149.92 2210.38 1149.44 2209.43 1148.48 2208.48 1147.53 2208 1146.35 2208 1144.96 2208 1143.58 2208.48 1142.41 2209.44 1141.44 2210.39 1140.48 2211.56 1140 2212.93 1140Z" fill="#7C7469" fill-rule="evenodd"/><path d="M2163.01 1157 2175.08 1157C2176.47 1157 2177.64 1157.51 2178.6 1158.52 2179.56 1159.53 2180.04 1160.72 2180.04 1162.08L2180.04 1195.02 2186.94 1195.02C2188.32 1195.02 2189.5 1195.51 2190.5 1196.48 2191.5 1197.46 2192 1198.63 2192 1200.01 2192 1201.38 2191.51 1202.56 2190.53 1203.53 2189.55 1204.51 2188.38 1205 2187.03 1205L2162.92 1205C2161.54 1205 2160.37 1204.52 2159.42 1203.55 2158.47 1202.59 2158 1201.41 2158 1200.01 2158 1198.67 2158.48 1197.5 2159.44 1196.51 2160.39 1195.52 2161.55 1195.02 2162.92 1195.02L2170.05 1195.02 2170.05 1167.08 2163.01 1167.08C2161.64 1167.08 2160.48 1166.58 2159.52 1165.6 2158.57 1164.61 2158.1 1163.44 2158.1 1162.09 2158.1 1160.7 2158.57 1159.51 2159.52 1158.51 2160.47 1157.5 2161.64 1157 2163.01 1157Z" fill="#7C7469" fill-rule="evenodd"/><path d="M2292.91 1157C2294.29 1157 2295.49 1157.49 2296.49 1158.48 2297.5 1159.47 2298 1160.63 2298 1161.96L2298 1169.92 2276.17 1218.41C2275.21 1220.8 2273.58 1222 2271.28 1222L2260.04 1222C2258.64 1222 2257.45 1221.53 2256.47 1220.58 2255.49 1219.63 2255 1218.45 2255 1217.03 2255 1215.66 2255.49 1214.49 2256.48 1213.54 2257.46 1212.59 2258.65 1212.11 2260.03 1212.11L2268.07 1212.11 2273.34 1201.35 2272.28 1201.35C2270.02 1201.35 2268.39 1200.22 2267.4 1197.97L2255.2 1169.96 2255.2 1162.05C2255.2 1160.69 2255.68 1159.52 2256.65 1158.55 2257.61 1157.58 2258.78 1157.1 2260.14 1157.1 2261.55 1157.1 2262.77 1157.58 2263.79 1158.55 2264.82 1159.51 2265.33 1160.68 2265.33 1162.05L2265.36 1167.81 2275.6 1191.32 2277.19 1191.32 2287.8 1167.87 2287.77 1161.97C2287.77 1160.64 2288.27 1159.49 2289.28 1158.49 2290.29 1157.5 2291.5 1157 2292.91 1157Z" fill="#7C7469" fill-rule="evenodd"/><path d="M2110.33 1157 2125.7 1157C2129.33 1157 2132.42 1158.26 2134.97 1160.77 2137.52 1163.28 2138.85 1166.3 2138.95 1169.84L2140 1200.46C2140 1201.54 2139.5 1202.56 2138.49 1203.54 2137.49 1204.51 2136.29 1205 2134.92 1205 2133.49 1205 2132.28 1204.52 2131.28 1203.56 2130.29 1202.6 2129.79 1201.75 2129.79 1201.01L2124.23 1205 2110.23 1205C2106.54 1205 2103.41 1203.73 2100.84 1201.2 2098.28 1198.66 2097 1195.56 2097 1191.91L2097 1187.23C2097 1183.62 2098.29 1180.53 2100.88 1177.97 2103.47 1175.41 2106.59 1174.14 2110.24 1174.14L2126.12 1174.14C2127.05 1174.14 2127.98 1174.32 2128.9 1174.7L2128.76 1170.04C2128.76 1169.19 2128.46 1168.47 2127.85 1167.87 2127.25 1167.28 2126.53 1166.98 2125.69 1166.98L2110.32 1166.98C2108.95 1166.98 2107.76 1166.49 2106.78 1165.51 2105.79 1164.53 2105.3 1163.36 2105.3 1161.99 2105.3 1160.6 2105.78 1159.42 2106.76 1158.45 2107.74 1157.48 2108.92 1157 2110.33 1157ZM2110.22 1184.31C2109.4 1184.31 2108.69 1184.6 2108.1 1185.19 2107.51 1185.77 2107.21 1186.49 2107.21 1187.33L2107.21 1191.8C2107.21 1192.63 2107.51 1193.34 2108.11 1193.93 2108.72 1194.53 2109.42 1194.83 2110.22 1194.83L2121.37 1194.83 2129.47 1190.2 2129.23 1187.45C2129.21 1186.53 2128.9 1185.77 2128.31 1185.19 2127.72 1184.6 2127 1184.31 2126.17 1184.31L2110.22 1184.31Z" fill="#7C7469" fill-rule="evenodd"/></g></svg>