<svg width="577" height="120" xmlns="http://www.w3.org/2000/svg" xmlns:xlink="http://www.w3.org/1999/xlink" xml:space="preserve" overflow="hidden"><defs><clipPath id="clip0"><rect x="1947" y="1200" width="577" height="120"/></clipPath><clipPath id="clip1"><rect x="2258" y="1200" width="267" height="120"/></clipPath><clipPath id="clip2"><rect x="2258" y="1200" width="267" height="120"/></clipPath><clipPath id="clip3"><rect x="2258" y="1200" width="267" height="120"/></clipPath></defs><g clip-path="url(#clip0)" transform="translate(-1947 -1200)"><g clip-path="url(#clip1)"><g clip-path="url(#clip2)"><g clip-path="url(#clip3)"><path d="M459.968 274.487C461.968 274.487 463.303 275.821 464.255 278.202 465.397 275.821 467.018 274.487 469.305 274.487L485.31 274.487C487.723 274.479 489.685 276.431 489.693 278.844 489.693 278.853 489.693 278.861 489.693 278.87L489.693 287.291C489.693 290.148 488.265 291.674 485.31 291.674 482.453 291.674 480.927 290.148 480.927 287.291L480.927 283.25 469.59 283.25C468.167 283.09 466.882 284.113 466.722 285.536 466.697 285.758 466.7 285.983 466.733 286.203L466.733 315.451 477.498 315.451C480.357 315.451 481.88 316.881 481.88 319.834 481.88 322.787 480.357 324.217 477.498 324.217L449.108 324.217C446.248 324.217 444.82 322.788 444.82 319.834 444.82 316.88 446.248 315.451 449.108 315.451L457.968 315.451 457.968 283.25 450.155 283.25C447.298 283.25 445.868 281.821 445.868 278.868 445.868 276.008 447.298 274.485 450.155 274.485Z" fill="#7C7469" transform="matrix(1 0 0 1.00386 1872.85 959.966)"/><path d="M580.091 274.487C582.948 274.487 584.473 276.01 584.473 278.87L584.473 315.453 595.339 315.453C598.293 315.453 599.721 316.883 599.721 319.836 599.721 322.789 598.293 324.219 595.339 324.219L564.564 324.219C561.707 324.219 560.181 322.79 560.181 319.836 560.181 316.882 561.707 315.453 564.564 315.453L575.711 315.453 575.711 283.25 566.532 283.25C563.58 283.25 562.15 281.821 562.15 278.868 562.15 276.008 563.58 274.485 566.532 274.485ZM584.63 255.537C584.654 259.019 581.852 261.86 578.37 261.883 574.889 261.907 572.048 259.104 572.025 255.623 572.001 252.142 574.804 249.301 578.284 249.277 578.314 249.277 578.341 249.277 578.37 249.277 581.808 249.325 584.583 252.099 584.63 255.537Z" fill="#7C7469" transform="matrix(1 0 0 1.00386 1872.85 959.966)"/><path d="M650.995 278.87C651.001 279.454 650.904 280.035 650.707 280.584L634.704 321.548C634.113 323.229 632.481 324.317 630.701 324.216L624.319 324.216C622.503 324.373 620.813 323.272 620.222 321.548L604.027 280.581C603.754 280.052 603.623 279.461 603.645 278.866 603.65 276.44 605.622 274.477 608.048 274.483 608.074 274.483 608.098 274.484 608.124 274.484 609.945 274.439 611.576 275.604 612.124 277.341L627.559 316.213 642.512 277.341C643.06 275.603 644.693 274.438 646.514 274.484 648.94 274.435 650.945 276.363 650.994 278.789 650.995 278.816 650.995 278.843 650.995 278.87Z" fill="#7C7469" transform="matrix(1 0 0 1.00386 1872.85 959.966)"/><path d="M522.984 298.932 487.763 340.728C486.379 342.204 485.521 344.791 486.294 346.644 487.083 348.559 488.957 349.801 491.028 349.779 492.353 349.746 493.597 349.13 494.427 348.098L537.663 302.147C539.39 300.331 539.409 297.487 537.709 295.647Z" fill="#AA142D" transform="matrix(1 0 0 1.00386 1872.85 959.966)"/><path d="M522.984 298.932 556.535 257.764C558.14 255.624 558.901 254.505 558.14 252.683 557.322 250.716 555.447 249.394 553.319 249.283L553.319 249.283C552.122 249.215 550.95 249.646 550.083 250.475L508.528 295.406C506.678 297.385 506.686 300.462 508.544 302.431L559.951 357.371C560.827 358.283 562.065 358.754 563.326 358.653 565.253 358.62 566.967 357.42 567.658 355.622 568.432 353.764 567.576 351.923 566.152 349.995L522.988 298.935" fill="#7C7469" transform="matrix(1 0 0 1.00386 1872.85 959.966)"/><path d="M537.705 295.652 487.506 241.403C487.506 241.403 485.663 239.165 483.715 239.118 481.693 239.072 479.846 240.259 479.048 242.117 478.289 243.937 478.833 245.215 480.499 247.604L523.63 299.694" fill="#AA142D" transform="matrix(1 0 0 1.00386 1872.85 959.966)"/><path d="M420.207 274.487C425.605 274.487 429.034 278.05 429.034 283.523L429.034 324.221 390.836 324.221C387.983 324.418 385.511 322.265 385.314 319.412 385.302 319.248 385.299 319.083 385.303 318.918L385.303 304.902C385.31 300.524 388.506 296.803 392.834 296.137L420.273 292.294 420.273 283.258 389.758 283.258C387.374 283.333 385.381 281.462 385.305 279.079 385.303 279.011 385.302 278.943 385.303 278.875 385.303 275.788 387.609 274.492 389.988 274.492ZM420.27 315.453 420.27 301.153 394.071 304.811 394.071 315.461Z" fill="#7C7469" transform="matrix(1 0 0 1.00386 1872.85 959.966)"/></g></g></g><g><g><g><path d="M2187.29 1144.54 2191.44 1144.54C2192.82 1144.54 2193.98 1145.06 2194.95 1146.07 2195.91 1147.09 2196.39 1148.32 2196.39 1149.75L2196.39 1153.34C2196.39 1154.77 2195.92 1156.02 2194.96 1157.07 2194 1158.12 2192.83 1158.65 2191.44 1158.65L2187.19 1158.65C2185.78 1158.65 2184.6 1158.11 2183.66 1157.05 2182.71 1155.97 2182.26 1154.7 2182.29 1153.24L2182.38 1149.72C2182.38 1148.29 2182.85 1147.07 2183.81 1146.06 2184.77 1145.05 2185.92 1144.54 2187.29 1144.54Z" fill="#AA142D" fill-rule="evenodd" transform="matrix(1 0 0 1.00088 -104.309 70.5886)"/><path d="M2093.56 1148.57C2094.94 1148.57 2096.14 1149.06 2097.15 1150.03 2098.16 1151.01 2098.66 1152.19 2098.66 1153.56L2098.66 1209.07C2098.66 1210.44 2098.17 1211.62 2097.18 1212.6 2096.18 1213.58 2095.02 1214.06 2093.66 1214.06 2092.24 1214.06 2091.07 1213.58 2090.12 1212.6 2089.17 1211.62 2088.7 1210.44 2088.7 1209.05L2088.7 1208.26C2085.74 1212.13 2082.42 1214.06 2078.75 1214.06L2071.97 1214.06C2069 1214.06 2066.07 1212.8 2063.18 1210.29L2059.74 1207.37C2058.94 1206.59 2058.17 1205.29 2057.43 1203.44 2056.71 1201.6 2056.35 1199.85 2056.35 1198.22L2056.35 1181.87C2056.35 1179.91 2056.75 1178 2057.57 1176.18 2058.37 1174.35 2059.35 1172.96 2060.48 1172.01L2063.75 1169.19C2066.27 1166.98 2069.23 1165.88 2072.64 1165.88L2078.38 1165.88C2081.76 1165.88 2084.82 1167.08 2087.57 1169.49L2088.7 1171.58 2088.7 1153.57C2088.7 1152.19 2089.17 1151.01 2090.13 1150.03 2091.08 1149.06 2092.22 1148.57 2093.56 1148.57ZM2072.55 1175.98C2071.65 1175.98 2070.79 1176.34 2070 1177.05L2067.41 1179.33C2066.8 1179.88 2066.5 1180.63 2066.5 1181.59L2066.5 1198.6C2066.5 1199.42 2066.91 1200.19 2067.7 1200.87L2070.27 1203.08C2070.94 1203.67 2071.6 1203.97 2072.27 1203.97L2078.76 1203.97C2079.37 1203.97 2080.06 1203.87 2080.83 1203.69L2087.26 1197.63C2088.22 1196.77 2088.7 1195.81 2088.7 1194.76L2088.7 1186.09C2088.7 1184.47 2088.29 1183.32 2087.46 1182.63L2080.91 1176.97C2080.19 1176.31 2079.26 1175.98 2078.1 1175.98L2072.55 1175.98Z" fill="#AA142D" fill-rule="evenodd" transform="matrix(1 0 0 1.00088 -104.309 70.5886)"/><path d="M2229.57 1148.57 2241.76 1148.57C2243.12 1148.57 2244.3 1149.07 2245.29 1150.06 2246.28 1151.06 2246.78 1152.23 2246.78 1153.56L2246.78 1203.97 2253.84 1203.97C2255.21 1203.97 2256.39 1204.47 2257.38 1205.47 2258.36 1206.45 2258.86 1207.62 2258.86 1208.96 2258.86 1210.34 2258.37 1211.53 2257.41 1212.54 2256.45 1213.56 2255.25 1214.06 2253.84 1214.06L2229.67 1214.06C2228.27 1214.06 2227.09 1213.56 2226.13 1212.56 2225.18 1211.56 2224.7 1210.36 2224.7 1208.96 2224.7 1207.62 2225.19 1206.45 2226.15 1205.46 2227.11 1204.46 2228.29 1203.97 2229.66 1203.97L2236.68 1203.97 2236.68 1158.57 2229.57 1158.57C2228.18 1158.57 2227 1158.08 2226.04 1157.12 2225.09 1156.16 2224.6 1154.97 2224.6 1153.57 2224.6 1152.18 2225.09 1151 2226.05 1150.02 2227.01 1149.06 2228.19 1148.57 2229.57 1148.57Z" fill="#7C7469" fill-rule="evenodd" transform="matrix(1 0 0 1.00088 -104.309 70.5886)"/><path d="M2179.27 1165.7 2191.44 1165.7C2192.84 1165.7 2194.01 1166.21 2194.98 1167.23 2195.95 1168.25 2196.43 1169.45 2196.43 1170.82L2196.43 1204.01 2203.38 1204.01C2204.77 1204.01 2205.96 1204.5 2206.97 1205.48 2207.98 1206.46 2208.48 1207.64 2208.48 1209.03 2208.48 1210.41 2207.99 1211.6 2207 1212.58 2206.01 1213.57 2204.83 1214.06 2203.47 1214.06L2179.18 1214.06C2177.79 1214.06 2176.61 1213.58 2175.66 1212.6 2174.7 1211.63 2174.23 1210.44 2174.23 1209.03 2174.23 1207.68 2174.71 1206.5 2175.68 1205.51 2176.63 1204.51 2177.8 1204.01 2179.18 1204.01L2186.37 1204.01 2186.37 1175.86 2179.27 1175.86C2177.89 1175.86 2176.73 1175.35 2175.76 1174.36 2174.8 1173.37 2174.33 1172.19 2174.33 1170.83 2174.33 1169.43 2174.8 1168.23 2175.76 1167.22 2176.72 1166.2 2177.89 1165.7 2179.27 1165.7Z" fill="#7C7469" fill-rule="evenodd" transform="matrix(1 0 0 1.00088 -104.309 70.5886)"/><path d="M2310.15 1165.7C2311.54 1165.7 2312.75 1166.19 2313.76 1167.19 2314.78 1168.19 2315.28 1169.36 2315.28 1170.7L2315.28 1178.72 2293.28 1227.57C2292.32 1229.98 2290.68 1231.19 2288.36 1231.19L2277.03 1231.19C2275.62 1231.19 2274.42 1230.71 2273.44 1229.76 2272.45 1228.8 2271.96 1227.61 2271.96 1226.18 2271.96 1224.8 2272.45 1223.62 2273.45 1222.66 2274.43 1221.71 2275.63 1221.22 2277.02 1221.22L2285.12 1221.22 2290.43 1210.38 2289.37 1210.38C2287.09 1210.38 2285.45 1209.24 2284.45 1206.98L2272.16 1178.76 2272.16 1170.79C2272.16 1169.42 2272.64 1168.24 2273.62 1167.26 2274.59 1166.28 2275.76 1165.8 2277.13 1165.8 2278.56 1165.8 2279.78 1166.28 2280.81 1167.26 2281.85 1168.23 2282.36 1169.41 2282.36 1170.79L2282.39 1176.59 2292.71 1200.28 2294.31 1200.28 2305 1176.65 2304.97 1170.71C2304.97 1169.37 2305.48 1168.21 2306.49 1167.2 2307.51 1166.2 2308.73 1165.7 2310.15 1165.7Z" fill="#7C7469" fill-rule="evenodd" transform="matrix(1 0 0 1.00088 -104.309 70.5886)"/><path d="M2126.2 1165.7 2141.68 1165.7C2145.34 1165.7 2148.45 1166.97 2151.02 1169.5 2153.59 1172.03 2154.93 1175.07 2155.03 1178.64L2156.09 1209.49C2156.09 1210.57 2155.59 1211.6 2154.57 1212.59 2153.56 1213.57 2152.35 1214.06 2150.97 1214.06 2149.53 1214.06 2148.31 1213.58 2147.31 1212.61 2146.31 1211.64 2145.8 1210.79 2145.8 1210.04L2140.2 1214.06 2126.1 1214.06C2122.38 1214.06 2119.23 1212.78 2116.64 1210.23 2114.06 1207.67 2112.77 1204.55 2112.77 1200.87L2112.77 1196.16C2112.77 1192.52 2114.07 1189.41 2116.68 1186.83 2119.29 1184.25 2122.43 1182.97 2126.11 1182.97L2142.11 1182.97C2143.04 1182.97 2143.98 1183.15 2144.91 1183.53L2144.77 1178.84C2144.77 1177.98 2144.46 1177.26 2143.85 1176.65 2143.25 1176.06 2142.52 1175.75 2141.67 1175.75L2126.19 1175.75C2124.81 1175.75 2123.61 1175.26 2122.62 1174.27 2121.62 1173.29 2121.13 1172.11 2121.13 1170.73 2121.13 1169.33 2121.61 1168.14 2122.6 1167.16 2123.59 1166.18 2124.78 1165.7 2126.2 1165.7ZM2126.09 1193.22C2125.26 1193.22 2124.55 1193.51 2123.95 1194.1 2123.36 1194.69 2123.05 1195.41 2123.05 1196.26L2123.05 1200.76C2123.05 1201.6 2123.36 1202.31 2123.96 1202.91 2124.58 1203.51 2125.28 1203.81 2126.09 1203.81L2137.32 1203.81 2145.48 1199.15 2145.24 1196.38C2145.22 1195.45 2144.91 1194.69 2144.31 1194.1 2143.72 1193.51 2142.99 1193.22 2142.16 1193.22L2126.09 1193.22Z" fill="#7C7469" fill-rule="evenodd" transform="matrix(1 0 0 1.00088 -104.309 70.5886)"/></g></g></g></g></svg>